<svg width="281" height="57" viewBox="0 0 281 57" fill="none" xmlns="http://www.w3.org/2000/svg">
<path d="M25.865 1.12C19.8383 1.12 15.065 3.62666 11.545 8.64C8.025 13.6533 6.265 20.9067 6.265 30.4C6.265 41.92 8.905 49.36 14.185 52.72C15.785 53.7333 17.2517 54.4 18.585 54.72C19.9717 54.9867 21.4917 55.12 23.145 55.12C28.425 55.12 33.945 54.48 39.705 53.2L39.945 54.32C39.0383 54.64 36.6117 55.0667 32.665 55.6C28.7717 56.08 25.5983 56.32 23.145 56.32C20.6917 56.32 18.5583 56.16 16.745 55.84C14.9317 55.4667 13.0117 54.72 10.985 53.6C8.95833 52.48 7.225 51.0133 5.785 49.2C4.39833 47.3333 3.225 44.8 2.265 41.6C1.305 38.4 0.825 34.6667 0.825 30.4C0.825 20.96 2.985 13.6 7.305 8.32C11.8383 2.77333 18.025 -3.8147e-06 25.865 -3.8147e-06C28.265 -3.8147e-06 30.8517 0.239996 33.625 0.719996C36.4517 1.14666 38.4517 1.57333 39.625 2L40.585 13.52L39.065 14.08L38.025 5.52C33.705 2.58666 29.6517 1.12 25.865 1.12ZM93.2669 -3.8147e-06C93.2669 0.0533288 93.2935 0.453328 93.3469 1.2L88.3069 1.76V54.48L94.1469 54.8C94.1469 54.8533 94.1202 55.2533 94.0669 56L78.0669 56.08C78.0669 55.6 78.0935 55.2267 78.1469 54.96L82.3069 54.4C82.8402 54.3467 83.1602 54 83.2669 53.36V29.04H55.9869V54.48L61.9069 54.8C61.9069 54.8533 61.8802 55.2533 61.8269 56L45.7469 56.08L45.8269 54.96L49.9869 54.4C50.5202 54.3467 50.8402 54.0267 50.9469 53.44V2.72C50.8402 2.08 50.5202 1.73333 49.9869 1.68L45.8269 1.28L45.7469 0.0799952L61.8269 -3.8147e-06C61.8269 0.0533288 61.8535 0.453328 61.9069 1.2L55.9869 1.76V27.44H83.2669V2.8C83.1602 2.10666 82.8402 1.73333 82.3069 1.68L78.1469 1.28C78.0935 0.959997 78.0669 0.559995 78.0669 0.0799952L93.2669 -3.8147e-06ZM99.5081 1.2L99.5881 -3.8147e-06H133.828L133.748 0.239998L134.788 11.52L133.188 12.16L131.908 1.6H110.148V27.44H129.268C129.535 27.4933 129.775 27.44 129.988 27.28C130.201 27.0667 130.308 26.8 130.308 26.48L130.628 20.96L131.908 20.8V34.48C131.855 34.48 131.455 34.5067 130.708 34.56L130.388 29.04H110.148V54.4H134.068L135.588 41.6L137.108 42L135.908 56H115.588L99.5081 56.08L99.5881 54.96L103.748 54.4C104.281 54.3467 104.601 54 104.708 53.36V2.72C104.601 2.08 104.281 1.73333 103.748 1.68L99.5081 1.2ZM142.088 1.2L142.168 -3.8147e-06H161.608C167.101 -3.8147e-06 171.341 1.2 174.328 3.6C177.315 6 178.808 9.57333 178.808 14.32C178.808 17.4133 177.608 20.64 175.208 24C172.861 27.36 170.648 29.52 168.568 30.48L183.368 54.56L187.288 54.8C187.288 54.8533 187.261 55.2533 187.208 56L178.488 56.08L163.288 31.44H152.648V54.48L158.248 54.8C158.248 54.8533 158.221 55.2533 158.168 56L142.088 56.08L142.168 54.96L146.328 54.4C146.701 54.3467 146.995 54.1067 147.208 53.68V2.48C147.048 2 146.755 1.73333 146.328 1.68L142.088 1.2ZM161.208 1.2H152.648V30.24H166.328C169.101 27.0933 170.968 24.32 171.928 21.92C172.888 19.4667 173.368 17.0933 173.368 14.8C173.368 10.32 172.328 6.93333 170.248 4.64C168.168 2.34666 165.155 1.2 161.208 1.2ZM191.854 1.2L191.934 -3.8147e-06H211.374C216.867 -3.8147e-06 221.107 1.2 224.094 3.6C227.08 6 228.574 9.57333 228.574 14.32C228.574 17.4133 227.374 20.64 224.974 24C222.627 27.36 220.414 29.52 218.334 30.48L233.134 54.56L237.054 54.8C237.054 54.8533 237.027 55.2533 236.974 56L228.254 56.08L213.054 31.44H202.414V54.48L208.014 54.8C208.014 54.8533 207.987 55.2533 207.934 56L191.854 56.08L191.934 54.96L196.094 54.4C196.467 54.3467 196.76 54.1067 196.974 53.68V2.48C196.814 2 196.52 1.73333 196.094 1.68L191.854 1.2ZM210.974 1.2H202.414V30.24H216.094C218.867 27.0933 220.734 24.32 221.694 21.92C222.654 19.4667 223.134 17.0933 223.134 14.8C223.134 10.32 222.094 6.93333 220.014 4.64C217.934 2.34666 214.92 1.2 210.974 1.2ZM280.133 -3.8147e-06C280.133 0.0533288 280.159 0.453328 280.213 1.2L275.653 1.6L258.533 37.12V54.48L264.373 54.8C264.373 54.8533 264.346 55.2533 264.293 56L248.293 56.08C248.293 55.6 248.319 55.2267 248.373 54.96L252.533 54.4C253.066 54.3467 253.386 54 253.493 53.36V37.12L235.493 2C235.279 1.84 235.066 1.70666 234.853 1.6L231.493 1.28C231.439 0.959997 231.413 0.559995 231.413 0.0799952L247.573 -3.8147e-06C247.573 0.0533288 247.599 0.453328 247.653 1.2L241.093 1.76L257.653 35.76L272.613 2.96C272.613 2.32 272.373 1.97333 271.893 1.92L264.613 1.28C264.559 0.959997 264.533 0.559995 264.533 0.0799952L280.133 -3.8147e-06Z" fill="#F5F7F6"/>
</svg>
