<svg width="27" height="26" viewBox="0 0 27 26" fill="none" xmlns="http://www.w3.org/2000/svg">
<path d="M23.6236 2.04837L23.6236 2.04835C22.3072 1.0281 20.8373 0.5 19.2641 0.5C17.3861 0.5 15.411 1.27167 13.5 2.68218C11.589 1.27167 9.6139 0.5 7.73593 0.5C6.16268 0.5 4.6928 1.0281 3.37641 2.04835L3.37638 2.04837C1.45796 3.53545 0.47005 5.447 0.500691 7.7071L0.500691 7.70713C0.526723 9.61898 1.30633 11.5751 2.42008 13.413C3.53712 15.2563 5.01471 17.0206 6.49223 18.5584C9.44744 21.634 12.4485 23.8502 12.701 24.0349L13.2048 24.4035L13.5 24.6195L13.7952 24.4035L14.299 24.035C14.299 24.0349 14.299 24.0349 14.299 24.0349C14.5519 23.85 17.5528 21.6338 20.5079 18.5584C21.9854 17.0206 23.463 15.2563 24.58 13.413C25.6937 11.5751 26.4733 9.61898 26.4993 7.70712C26.5299 5.447 25.542 3.53545 23.6236 2.04837ZM8.66802 16.8632L8.66801 16.8632C6.87685 15.0317 5.51767 13.3141 4.60477 11.7551C3.68926 10.1917 3.24079 8.81893 3.22536 7.66837L3.22536 7.66835C3.20731 6.32719 3.77108 5.21288 5.03499 4.23318L5.03502 4.23316C5.88503 3.57421 6.79099 3.25347 7.73593 3.25347C9.56668 3.25347 11.3771 4.42684 12.6233 5.4855L12.6233 5.48552L13.1763 5.95524L13.5 6.2302L13.8237 5.95524L14.3767 5.48552L14.3767 5.4855C15.6229 4.42684 17.4333 3.25347 19.2641 3.25347C20.209 3.25347 21.115 3.57421 21.965 4.23316L21.965 4.23318C23.2289 5.21288 23.7927 6.32719 23.7746 7.66835C23.7592 8.81898 23.3107 10.1917 22.3952 11.7552C21.4823 13.3141 20.1231 15.0317 18.332 16.8632C16.4454 18.7923 14.5411 20.368 13.5 21.1901C12.4589 20.368 10.5546 18.7924 8.66802 16.8632Z" fill="white" stroke="white"/>
</svg>
