<svg width="21" height="25" viewBox="0 0 21 25" fill="none" xmlns="http://www.w3.org/2000/svg">
<path d="M19.9972 21.9195L19.2467 7.45127H15.4972V6.28321C15.4972 3.36992 13.268 1 10.5277 1C7.78742 1 5.55815 3.37003 5.55815 6.28321V7.45127H1.64645L1.00076 21.9821L1.00011 22.0073C0.994805 22.5302 1.19028 23.0434 1.53611 23.4148C1.88206 23.7866 2.36268 24 2.85476 24H18.1454C18.6525 24 19.1436 23.7754 19.4925 23.3836C19.8412 22.9918 20.0252 22.4582 19.9972 21.9195ZM6.85431 6.28321C6.85431 4.12984 8.50213 2.37793 10.5277 2.37793C12.5532 2.37793 14.2011 4.12984 14.2011 6.28321V7.45127H6.8542V6.28321H6.85431ZM18.551 22.4362C18.4458 22.5542 18.298 22.622 18.1453 22.622H2.85466C2.70646 22.622 2.56182 22.5578 2.45743 22.4455C2.35553 22.3363 2.29702 22.186 2.29604 22.0319L2.88267 8.8292H5.55794V10.5741C5.55794 10.9546 5.84806 11.2631 6.20601 11.2631C6.56396 11.2631 6.85409 10.9546 6.85409 10.5741V8.8292H14.201V10.5741C14.201 10.9546 14.4911 11.2631 14.8491 11.2631C15.207 11.2631 15.497 10.9546 15.497 10.5741V8.8292H18.0198L18.7027 21.9956C18.7114 22.1577 18.6561 22.3184 18.551 22.4362Z" fill="black" stroke="black"/>
</svg>
