<svg width="19" height="23" viewBox="0 0 19 23" fill="none" xmlns="http://www.w3.org/2000/svg">
<path d="M18.9972 20.9195L18.2467 6.45127H14.4972V5.28321C14.4972 2.36992 12.268 0 9.5277 0C6.78742 0 4.55815 2.37003 4.55815 5.28321V6.45127H0.646453L0.000758713 20.9821L0.00010507 21.0073C-0.00519549 21.5302 0.190278 22.0434 0.536113 22.4148C0.882055 22.7866 1.36268 23 1.85476 23H17.1454C17.6525 23 18.1436 22.7754 18.4925 22.3836C18.8412 21.9918 19.0252 21.4582 18.9972 20.9195ZM5.85431 5.28321C5.85431 3.12984 7.50213 1.37793 9.5277 1.37793C11.5532 1.37793 13.2011 3.12984 13.2011 5.28321V6.45127H5.8542L5.85431 5.28321ZM17.551 21.4362C17.4458 21.5542 17.298 21.622 17.1453 21.622H1.85466C1.70646 21.622 1.56182 21.5578 1.45743 21.4455C1.35553 21.3363 1.29702 21.186 1.29604 21.0319L1.88267 7.8292H4.55794V9.57409C4.55794 9.95463 4.84806 10.2631 5.20601 10.2631C5.56396 10.2631 5.85409 9.95463 5.85409 9.57409V7.8292H13.201V9.57409C13.201 9.95463 13.4911 10.2631 13.8491 10.2631C14.207 10.2631 14.497 9.95463 14.497 9.57409V7.8292H17.0198L17.7027 20.9956C17.7114 21.1577 17.6561 21.3184 17.551 21.4362Z" fill="black"/>
</svg>
