<svg width="90" height="86" viewBox="0 0 90 86" fill="none" xmlns="http://www.w3.org/2000/svg">
<path d="M75 78.8334H68.7375C66.7484 78.8334 64.8407 78.0783 63.4342 76.7343C62.0277 75.3903 61.2375 73.5674 61.2375 71.6667V52.4242C61.271 51.6696 61.0323 50.9268 60.5613 50.3202C60.0903 49.7135 59.4156 49.2799 58.65 49.0917C58.2046 49.0269 57.7499 49.0542 57.3164 49.1716C56.883 49.2891 56.481 49.494 56.1375 49.7726C55.784 50.0592 55.5002 50.4162 55.3059 50.8184C55.1116 51.2207 55.0115 51.6587 55.0125 52.1017V71.6667C55.0125 73.5674 54.2223 75.3903 52.8158 76.7343C51.4093 78.0783 49.5016 78.8334 47.5125 78.8334H41.25C39.2609 78.8334 37.3532 78.0783 35.9467 76.7343C34.5402 75.3903 33.75 73.5674 33.75 71.6667V52.1017C33.75 45.9244 36.3181 40.0001 40.8893 35.632C45.4605 31.264 51.6603 28.8101 58.125 28.8101C64.5897 28.8101 70.7895 31.264 75.3607 35.632C79.9319 40.0001 82.5 45.9244 82.5 52.1017V71.6667C82.5 73.5674 81.7098 75.3903 80.3033 76.7343C78.8968 78.0783 76.9891 78.8334 75 78.8334ZM58.125 41.8892C58.7119 41.8538 59.3006 41.8538 59.8875 41.8892C62.4051 42.352 64.6719 43.647 66.2901 45.5472C67.9084 47.4474 68.7748 49.8313 68.7375 52.2809V71.6667H75V52.1017C75 47.8251 73.2221 43.7237 70.0574 40.6996C66.8927 37.6756 62.6005 35.9767 58.125 35.9767C53.6495 35.9767 49.3573 37.6756 46.1926 40.6996C43.0279 43.7237 41.25 47.8251 41.25 52.1017V71.6667H47.5125V52.1017C47.5124 49.4056 48.6281 46.8188 50.6162 44.9056C52.6043 42.9925 55.3035 41.9081 58.125 41.8892Z" fill="#66B933"/>
<path d="M22.5 78.8333H15C13.0109 78.8333 11.1032 78.0782 9.6967 76.7342C8.29018 75.3902 7.5 73.5673 7.5 71.6666V35.8333C7.5 33.9326 8.29018 32.1097 9.6967 30.7657C11.1032 29.4217 13.0109 28.6666 15 28.6666H22.5C24.4891 28.6666 26.3968 29.4217 27.8033 30.7657C29.2098 32.1097 30 33.9326 30 35.8333V71.6666C30 73.5673 29.2098 75.3902 27.8033 76.7342C26.3968 78.0782 24.4891 78.8333 22.5 78.8333ZM15 35.8333V71.6666H22.5V35.8333H15Z" fill="#66B933"/>
<path d="M18.75 25.0834C16.525 25.0834 14.3499 24.4529 12.4998 23.2717C10.6498 22.0905 9.20785 20.4115 8.35636 18.4472C7.50487 16.4829 7.28209 14.3215 7.71617 12.2362C8.15025 10.1509 9.22171 8.2354 10.7951 6.73198C12.3684 5.22857 14.373 4.20473 16.5552 3.78994C18.7375 3.37515 20.9995 3.58803 23.0552 4.40167C25.1109 5.21532 26.8679 6.59317 28.104 8.361C29.3402 10.1288 30 12.2072 30 14.3334C30 17.1845 28.8147 19.9188 26.705 21.9348C24.5952 23.9508 21.7337 25.0834 18.75 25.0834ZM18.75 10.75C18.0083 10.75 17.2833 10.9602 16.6666 11.3539C16.0499 11.7477 15.5693 12.3073 15.2855 12.9621C15.0016 13.6169 14.9274 14.3374 15.0721 15.0325C15.2168 15.7276 15.5739 16.366 16.0984 16.8672C16.6228 17.3683 17.291 17.7096 18.0184 17.8479C18.7458 17.9861 19.4998 17.9152 20.1851 17.6439C20.8703 17.3727 21.456 16.9134 21.868 16.3242C22.2801 15.7349 22.5 15.0421 22.5 14.3334C22.5 13.383 22.1049 12.4716 21.4017 11.7996C20.6984 11.1276 19.7446 10.75 18.75 10.75Z" fill="#66B933"/>
</svg>
