<svg width="144" height="49" viewBox="0 0 144 49" fill="none" xmlns="http://www.w3.org/2000/svg">
<g clip-path="url(#clip0_2317_476)">
<path d="M14.2767 43.1817C22.2189 43.6052 30.227 43.1647 38.1807 43.389C40.6101 43.4574 40.6026 39.6926 38.1807 39.6243C37.8351 39.614 37.4894 39.6105 37.1439 39.6022C37.1314 39.592 37.121 39.5801 37.1079 39.5698C35.2284 38.1795 34.4799 34.3786 37.1255 33.3639C37.3822 33.2653 37.5918 33.1279 37.7674 32.9669C37.8535 32.9654 37.9395 32.9662 38.0254 32.9647C38.6416 32.9521 39.0997 32.6999 39.4027 32.3316C39.7629 32.0344 39.9828 31.5697 39.9079 30.9264C38.9351 22.5205 37.6004 14.194 35.4836 5.99491C35.2842 5.22359 34.4865 4.56101 33.6681 4.61256C24.7543 5.17743 15.83 5.08926 6.90395 5.07959C5.79467 5.07812 5.13087 5.94213 5.02152 6.96202C4.06236 15.915 2.80577 25.0803 0.0965485 33.6928C-0.0405963 34.1273 -0.023943 34.5149 0.0980179 34.8428C0.0708339 35.0841 0.0513642 35.3318 0.0432825 35.5936C-0.165496 42.3531 9.53003 42.9289 14.2767 43.1817ZM19.0293 8.83417C19.6197 8.82976 20.209 8.82462 20.7995 8.81874C20.9477 10.7717 21.3329 12.7864 21.2337 14.7342C21.0329 14.5798 20.8355 14.4166 20.6407 14.232C20.2061 13.8202 19.469 13.8827 19.1624 14.4225C19.1363 14.4696 19.1007 14.5049 19.0715 14.5482C18.8749 12.6598 18.9789 10.7363 19.0293 8.83417ZM8.57712 8.84727C11.4345 8.85242 14.2918 8.8605 17.1492 8.84801C17.0904 11.4759 16.9422 14.1215 17.5114 16.7038C17.675 17.4458 18.5812 17.5495 19.0841 17.1193C19.4456 16.8112 19.7882 16.5406 20.0999 16.2377C20.5366 16.5751 20.9966 16.8715 21.5226 17.1105C22.03 17.3428 22.7823 17.1957 22.905 16.548C23.3888 13.992 22.8432 11.3715 22.6741 8.79058C25.855 8.73621 29.0351 8.63397 32.2129 8.45666C33.9012 15.2993 35.0733 22.2235 35.9336 29.2168C28.2557 29.3051 20.5747 29.1278 12.898 29.0603C10.5128 29.0398 7.61306 28.8927 5.17115 29.4669C6.84297 22.7149 7.81131 15.7371 8.57712 8.84727ZM18.0753 32.8788C22.8565 32.9339 27.6395 33.0142 32.4227 33.0112C31.4536 34.9899 31.5432 37.4061 32.5264 39.5192C28.625 39.4737 24.722 39.4759 20.8212 39.4707C17.8283 39.4671 14.8451 39.4922 11.8584 39.259C9.75399 39.0943 4.66984 38.7207 3.80472 36.2377C2.05037 31.2024 15.9716 32.8546 18.0753 32.8788Z" fill="black"/>
</g>
<path d="M73.7441 30.375C74.4082 30.375 75.0332 30.3213 75.6191 30.2139C76.2051 30.0967 76.7422 29.9502 77.2305 29.7744C77.7285 29.5986 78.1777 29.3984 78.5781 29.1738C78.9785 28.9492 79.3301 28.7246 79.6328 28.5H82.0791V36H62.4941V29.6426L64.3691 29.2764V20.2529L62.4941 19.8867V13.5H82.0791V21H79.7207C79.4082 20.7852 79.0469 20.5654 78.6367 20.3408C78.2266 20.1162 77.7676 19.916 77.2598 19.7402C76.7617 19.5547 76.2197 19.4082 75.6338 19.3008C75.0479 19.1836 74.418 19.125 73.7441 19.125V23.124L78.1387 22.1719V27.3574L73.7441 26.4053V30.375ZM95.6289 30.375C96.0977 30.375 96.5371 30.3213 96.9473 30.2139C97.3574 30.0967 97.7383 29.9502 98.0898 29.7744C98.4414 29.5986 98.7588 29.3984 99.042 29.1738C99.335 28.9492 99.5889 28.7246 99.8037 28.5H102.25V36H84.3789V29.6426L86.2539 29.2764V20.2236L84.3789 19.8574V13.5H97.5039V19.8574L95.6289 20.2236V30.375ZM104.169 15.375H116.503V21.1465L114.745 21.4834V29.8184L116.503 30.1553V36H104.169V30.1553L105.927 29.8184V21.4834L104.169 21.1465V15.375ZM137.084 15.375C138.529 15.7168 139.608 16.2686 140.321 17.0303C141.044 17.792 141.405 18.8271 141.405 20.1357C141.405 21.0146 141.308 21.7568 141.112 22.3623C140.917 22.9678 140.668 23.4658 140.365 23.8564C140.072 24.2471 139.75 24.5498 139.398 24.7646C139.057 24.9697 138.734 25.1211 138.432 25.2188C138.139 25.3164 137.89 25.375 137.685 25.3945C137.489 25.4043 137.392 25.4092 137.392 25.4092C137.743 25.4287 138.124 25.4727 138.534 25.541C138.944 25.5996 139.35 25.6973 139.75 25.834C140.15 25.9609 140.536 26.1318 140.907 26.3467C141.278 26.5518 141.601 26.8154 141.874 27.1377C142.157 27.46 142.382 27.8408 142.548 28.2803C142.724 28.7197 142.812 29.2324 142.812 29.8184C142.812 30.6973 142.699 31.5176 142.475 32.2793C142.25 33.0312 141.85 33.6855 141.273 34.2422C140.707 34.7891 139.94 35.2188 138.974 35.5312C138.007 35.8438 136.776 36 135.282 36H119.301V30.1553L121.059 29.8184V20.9854L119.301 20.6484V15.375H137.084ZM133.993 21.791C133.993 21.293 133.91 20.9121 133.744 20.6484C133.588 20.375 133.373 20.1748 133.1 20.0479C132.836 19.9209 132.533 19.8477 132.191 19.8281C131.859 19.8086 131.518 19.7988 131.166 19.7988H129.877V23.959H131.166C131.518 23.959 131.859 23.9492 132.191 23.9297C132.533 23.9004 132.836 23.8223 133.1 23.6953C133.373 23.5586 133.588 23.3438 133.744 23.0508C133.91 22.7578 133.993 22.3379 133.993 21.791ZM133.993 28.8076C133.993 28.3096 133.91 27.9287 133.744 27.665C133.588 27.4014 133.373 27.2061 133.1 27.0791C132.836 26.9521 132.533 26.8789 132.191 26.8594C131.859 26.8398 131.518 26.8301 131.166 26.8301H129.877V30.9902H131.166C131.518 30.9902 131.859 30.9805 132.191 30.9609C132.533 30.9316 132.836 30.8486 133.1 30.7119C133.373 30.5752 133.588 30.3604 133.744 30.0674C133.91 29.7744 133.993 29.3545 133.993 28.8076Z" fill="black"/>
<defs>
<clipPath id="clip0_2317_476">
<rect width="40" height="40" fill="white" transform="translate(0 4)"/>
</clipPath>
</defs>
</svg>
